# xmcd
#
# Track frame offsets:
#	150
#	15610
#	29729
#	51310
#	68050
#	97065
#	115159
#	138714
#	159286
#	175014
#	191084
#
# Disc length: 2757 seconds
# Revision: 0
# Processed by: cddbd v1.5.2PL0 Copyright (c) Steve Scherf et al.
# Submitted via: dBpowerAMP V12.0
#
DISCID=990ac30b
DTITLE=American Aquarium - Burn. Flicker. Die
DYEAR=1900
DGENRE=
TTITLE0=Cape Fear River
TTITLE1=St. Mary's
TTITLE2=Lonely Ain't Easy
TTITLE3=Abe Lincoln
TTITLE4=Jacksonville
TTITLE5=Harmless Sparks
TTITLE6=Burn. Flicker. Die.
TTITLE7=Casualties
TTITLE8=Savannah Almost Killed Me
TTITLE9=Northern Lights
TTITLE10=Saturday Nights
EXTD=
EXTT0=
EXTT1=
EXTT2=
EXTT3=
EXTT4=
EXTT5=
EXTT6=
EXTT7=
EXTT8=
EXTT9=
EXTT10=
PLAYORDER=
